<svg width="177" height="177" viewBox="0 0 177 177" fill="none" xmlns="http://www.w3.org/2000/svg">
<path d="M88.4959 0.187317C137.078 0.187317 176.461 39.5702 176.461 88.1523C176.461 136.726 137.078 176.1 88.4959 176.1C39.9138 176.1 0.548555 136.726 0.548555 88.1523C0.53976 39.5702 39.9138 0.187317 88.4959 0.187317ZM88.4959 101.327C81.4701 101.316 74.5132 102.712 68.0361 105.434C61.5589 108.156 55.6928 112.148 50.7841 117.175C50.1778 117.794 49.6993 118.526 49.376 119.33C49.0527 120.134 48.8909 120.994 48.8999 121.861C48.9089 122.727 49.0885 123.583 49.4284 124.38C49.7682 125.177 50.2618 125.9 50.8808 126.506C51.4999 127.113 52.2323 127.591 53.0363 127.914C53.8402 128.238 54.7 128.399 55.5665 128.39C56.433 128.381 57.2892 128.202 58.0863 127.862C58.8834 127.522 59.6057 127.028 60.2121 126.409C63.8963 122.641 68.2959 119.647 73.1528 117.602C78.0097 115.557 83.2261 114.503 88.4959 114.501C99.2695 114.501 109.339 118.811 116.736 126.348C117.343 126.966 118.067 127.458 118.864 127.796C119.662 128.135 120.519 128.313 121.385 128.32C122.252 128.327 123.111 128.164 123.914 127.839C124.718 127.514 125.449 127.035 126.067 126.427C126.685 125.82 127.177 125.096 127.516 124.299C127.854 123.501 128.032 122.644 128.039 121.778C128.047 120.911 127.883 120.052 127.558 119.249C127.234 118.445 126.754 117.714 126.146 117.096C121.241 112.089 115.384 108.113 108.919 105.402C102.455 102.691 95.5144 101.299 88.5047 101.309M62.1117 59.5694C60.6425 59.5278 59.1798 59.7813 57.8102 60.3149C56.4406 60.8484 55.1919 61.6512 54.138 62.6757C53.0841 63.7003 52.2463 64.9258 51.6742 66.2797C51.1021 67.6337 50.8074 69.0886 50.8074 70.5584C50.8074 72.0283 51.1021 73.4832 51.6742 74.8371C52.2463 76.1911 53.0841 77.4166 54.138 78.4411C55.1919 79.4656 56.4406 80.2684 57.8102 80.802C59.1798 81.3355 60.6425 81.589 62.1117 81.5474C64.9724 81.4665 67.6887 80.2733 69.6835 78.2212C71.6783 76.1692 72.7943 73.4202 72.7943 70.5584C72.7943 67.6966 71.6783 64.9476 69.6835 62.8956C67.6887 60.8436 64.9724 59.6503 62.1117 59.5694ZM114.88 59.5694C113.411 59.5278 111.948 59.7813 110.579 60.3149C109.209 60.8484 107.96 61.6512 106.906 62.6757C105.853 63.7003 105.015 64.9258 104.443 66.2797C103.871 67.6337 103.576 69.0886 103.576 70.5584C103.576 72.0283 103.871 73.4832 104.443 74.8371C105.015 76.1911 105.853 77.4166 106.906 78.4411C107.96 79.4656 109.209 80.2684 110.579 80.802C111.948 81.3355 113.411 81.589 114.88 81.5474C117.741 81.4665 120.457 80.2733 122.452 78.2212C124.447 76.1692 125.563 73.4202 125.563 70.5584C125.563 67.6966 124.447 64.9476 122.452 62.8956C120.457 60.8436 117.741 59.6503 114.88 59.5694Z" fill="#4fd1c5"/>
</svg>
